<svg width="18" height="18" viewBox="0 0 18 18" fill="none" xmlns="http://www.w3.org/2000/svg">
<rect x="3" y="3.08418" width="0.821311" height="11.6785" fill="#333333"/>
<path d="M12.0344 5.625H12.8557V10.875L12.0344 10.0416V5.625Z" fill="#333333"/>
<path d="M3 14.7626L3 13.9284L5.17928 13.9284L6 14.7626L3 14.7626Z" fill="#333333"/>
<rect x="4.64262" y="8.92342" width="0.834177" height="5.74918" transform="rotate(-90 4.64262 8.92342)" fill="#333333"/>
<rect x="4.64262" y="10.5918" width="0.834177" height="4.92787" transform="rotate(-90 4.64262 10.5918)" fill="#333333"/>
<rect x="3" y="3.08418" width="0.834176" height="6.57049" transform="rotate(-90 3 3.08418)" fill="#333333"/>
<rect x="9.57051" y="6.42087" width="0.821312" height="4.17088" transform="rotate(180 9.57051 6.42087)" fill="#333333"/>
<rect x="12.8557" y="5.58669" width="0.834176" height="4.10656" transform="rotate(90 12.8557 5.58669)" fill="#333333"/>
<path d="M12.8558 5.58675L9.57051 2.25005V3.50131L11.6238 5.58675H12.8558Z" fill="#333333"/>
<path fill-rule="evenodd" clip-rule="evenodd" d="M11.8443 15.0447L11.8459 15.0463L11.1531 15.7499L10.0529 14.625L10.7457 13.9214L11.1539 14.3387L14.843 10.5917L15.5358 11.2954L11.8443 15.0447Z" fill="#333333"/>
<path fill-rule="evenodd" clip-rule="evenodd" d="M8.58146 15.0447L8.58303 15.0463L7.89024 15.75L5.46384 13.2856L6.15663 12.5819L7.88867 14.3411L11.5802 10.5917L12.273 11.2954L8.58146 15.0447Z" fill="#333333"/>
</svg>
