<svg width="25" height="25" viewBox="0 0 25 25" fill="none" xmlns="http://www.w3.org/2000/svg">
    <path fill-rule="evenodd" clip-rule="evenodd" d="M16.4121 16.1266V6.19824H17.9121V17.2928L17.8145 17.3908C17.6811 17.1438 17.5086 16.9329 17.3273 16.7608C17.2741 16.7104 17.2242 16.6609 17.176 16.6131C16.9417 16.3804 16.7475 16.1876 16.4121 16.1266ZM8.47915 18.4318C8.43512 18.194 8.41211 17.9488 8.41211 17.6982V5.19824C8.41211 3.81824 9.53211 2.69824 10.9121 2.69824C12.2921 2.69824 13.4121 3.81824 13.4121 5.19824V15.6982C13.4121 16.2482 12.9621 16.6982 12.4121 16.6982C11.8621 16.6982 11.4121 16.2482 11.4121 15.6982V6.19824H9.91211V15.6982C9.91211 17.0782 11.0321 18.1982 12.4121 18.1982C13.7921 18.1982 14.9121 17.0782 14.9121 15.6982V5.19824C14.9121 2.98824 13.1221 1.19824 10.9121 1.19824C8.70211 1.19824 6.91211 2.98824 6.91211 5.19824V17.6982C6.91211 18.5639 7.11158 19.3825 7.46712 20.1107C7.52672 19.5723 7.78355 19.1338 8.06406 18.8131C8.18023 18.6802 8.31874 18.5486 8.47915 18.4318Z" fill="#5F6368"/>
    <path d="M15.5141 20.4702L14.4122 21.5977L15.4691 22.6707C15.6766 22.9372 15.9149 23.0705 16.1841 23.0705C16.4532 23.0705 16.6639 22.9854 16.8164 22.8152L20.617 18.9701C21.0461 18.5078 21.0656 18.0917 20.6754 17.7216C20.2852 17.3516 19.8738 17.4053 19.4414 17.8828L16.1841 21.1541L15.5141 20.4702Z" fill="#2ECF80"/>
    <path d="M9.19306 19.8006C8.86522 20.1755 8.87472 20.5513 9.22156 20.9282L11.0887 22.7984C11.2962 23.0649 11.5346 23.1981 11.8037 23.1981C12.0728 23.1981 12.2836 23.113 12.436 22.9428L16.2366 19.0977C16.6657 18.6355 16.6852 18.2193 16.295 17.8493C15.9048 17.4792 15.4935 17.5329 15.061 18.0104L11.8037 21.2818L10.3235 19.8006C9.89772 19.4258 9.52091 19.4258 9.19306 19.8006Z" fill="#2ECF80"/>
</svg>
