<svg width="20" height="20" viewBox="0 0 20 20" fill="none" xmlns="http://www.w3.org/2000/svg">
    <path d="M11.6667 6.66707C11.6667 4.82541 10.175 3.33374 8.33333 3.33374C6.49167 3.33374 5 4.82541 5 6.66707C5 8.50874 6.49167 10.0004 8.33333 10.0004C10.175 10.0004 11.6667 8.50874 11.6667 6.66707ZM10 6.66707C10 7.58374 9.25 8.33374 8.33333 8.33374C7.41667 8.33374 6.66667 7.58374 6.66667 6.66707C6.66667 5.75041 7.41667 5.00041 8.33333 5.00041C9.25 5.00041 10 5.75041 10 6.66707Z" fill="#1A73E8"/>
    <path d="M1.6665 15.0003V16.667H14.9998V15.0003C14.9998 12.7837 10.5582 11.667 8.33317 11.667C6.10817 11.667 1.6665 12.7837 1.6665 15.0003ZM3.33317 15.0003C3.49984 14.4087 6.08317 13.3337 8.33317 13.3337C10.5748 13.3337 13.1415 14.4003 13.3332 15.0003H3.33317Z" fill="#4285F4"/>
    <path d="M19.1665 8.33374H14.1665V10.0004H19.1665V8.33374Z" fill="#4285F4"/>
</svg>
