<svg width="20" height="20" viewBox="0 0 20 20" fill="none" xmlns="http://www.w3.org/2000/svg">
    <path d="M10.8335 6.66658C10.8335 4.82492 9.34183 3.33325 7.50016 3.33325C5.6585 3.33325 4.16683 4.82492 4.16683 6.66658C4.16683 8.50825 5.6585 9.99992 7.50016 9.99992C9.34183 9.99992 10.8335 8.50825 10.8335 6.66658ZM9.16683 6.66658C9.16683 7.58325 8.41683 8.33325 7.50016 8.33325C6.5835 8.33325 5.8335 7.58325 5.8335 6.66658C5.8335 5.74992 6.5835 4.99992 7.50016 4.99992C8.41683 4.99992 9.16683 5.74992 9.16683 6.66658ZM0.833496 14.9999V16.6666H14.1668V14.9999C14.1668 12.7833 9.72516 11.6666 7.50016 11.6666C5.27516 11.6666 0.833496 12.7833 0.833496 14.9999ZM2.50016 14.9999C2.66683 14.4083 5.25016 13.3333 7.50016 13.3333C9.74183 13.3333 12.3168 14.3999 12.5002 14.9999H2.50016ZM16.6668 12.4999V9.99992H19.1668V8.33325H16.6668V5.83325H15.0002V8.33325H12.5002V9.99992H15.0002V12.4999H16.6668Z" fill="#1A73E8"/>
</svg>
