<svg width="20" height="20" viewBox="0 0 20 20" fill="none" xmlns="http://www.w3.org/2000/svg">
    <path fill-rule="evenodd" clip-rule="evenodd" d="M10.0002 1.66724C10.0002 1.66724 5.8335 3.3339 5.8335 10.0006C5.8335 12.5839 6.46683 14.7922 7.22516 16.5256C7.49736 17.1223 8.09426 17.504 8.75016 17.5006H11.2502C11.9061 17.504 12.503 17.1223 12.7752 16.5256C13.5418 14.7922 14.1668 12.5839 14.1668 10.0006C14.1668 3.3339 10.0002 1.66724 10.0002 1.66724ZM11.2502 15.8339H8.75016C7.91683 13.9672 7.50016 12.0089 7.50016 10.0006C7.50016 6.1339 9.0835 4.3339 10.0002 3.6089C10.9168 4.3339 12.5002 6.1339 12.5002 10.0006C12.5002 12.0089 12.0835 13.9672 11.2502 15.8339ZM16.6668 18.3339L13.4502 17.0422C14.0335 15.7672 14.4502 14.4506 14.7085 13.1089M6.55016 17.0422L3.3335 18.3339L5.29183 13.1089C5.55016 14.4506 5.96683 15.7672 6.55016 17.0422ZM10.0002 10.0006C9.0835 10.0006 8.3335 9.25057 8.3335 8.3339C8.3335 7.41724 9.0835 6.66724 10.0002 6.66724C10.9168 6.66724 11.6668 7.41724 11.6668 8.3339C11.6668 9.25057 10.9168 10.0006 10.0002 10.0006Z" fill="#4285F4"/>
</svg>
