<svg width="30" height="24" viewBox="0 0 30 24" fill="none" xmlns="http://www.w3.org/2000/svg">
<path fill-rule="evenodd" clip-rule="evenodd" d="M4.33828 9.7772L14.0442 3.70178C14.6262 3.33748 15.3736 3.33748 15.9556 3.70178L25.6615 9.7772C26.1658 10.0929 26.4705 10.6358 26.4705 11.2186V19.7141C26.4705 20.1876 26.0754 20.5714 25.5881 20.5714H4.41165C3.92434 20.5714 3.5293 20.1876 3.5293 19.7141V11.2186C3.5293 10.6358 3.83401 10.0929 4.33828 9.7772Z" fill="#AAAAAA"/>
<path fill-rule="evenodd" clip-rule="evenodd" d="M6.61746 5.57141H23.3822C23.8695 5.57141 24.2645 5.95517 24.2645 6.42855V12.2909C24.2645 12.906 23.9252 13.4741 23.3754 13.7793L15.8754 17.9425C15.3328 18.2437 14.6668 18.2437 14.1243 17.9425L6.62427 13.7793C6.07444 13.4741 5.73511 12.906 5.73511 12.2909V6.42855C5.73511 5.95517 6.13015 5.57141 6.61746 5.57141Z" fill="white"/>
<path fill-rule="evenodd" clip-rule="evenodd" d="M23.3822 5.57141C23.8695 5.57141 24.2645 5.95517 24.2645 6.42855V12.2909C24.2645 12.906 23.9252 13.4741 23.3754 13.7793L15.8754 17.9425C15.3328 18.2437 14.6668 18.2437 14.1243 17.9425L6.62427 13.7793C6.07444 13.4741 5.73511 12.906 5.73511 12.2909V6.42855C5.73511 5.95517 6.13015 5.57141 6.61746 5.57141H23.3822ZM23.3822 5.99998H6.61746C6.39121 5.99998 6.20474 6.16543 6.17925 6.37857L6.17628 6.42855V12.2909C6.17628 12.7234 6.39996 13.1249 6.76771 13.362L6.84316 13.4072L14.3432 17.5704C14.7229 17.7812 15.1834 17.7953 15.5739 17.6126L15.6565 17.5704L23.1565 13.4072C23.5431 13.1926 23.7909 12.8047 23.8204 12.3769L23.8233 12.2909V6.42855C23.8233 6.20877 23.653 6.02762 23.4336 6.00287L23.3822 5.99998Z" fill="#F4F4F4"/>
<path fill-rule="evenodd" clip-rule="evenodd" d="M23.8233 12L23.8233 13.4249C23.6969 13.5641 23.5463 13.6844 23.3754 13.7793L15.8753 17.9426C15.3328 18.2437 14.6668 18.2437 14.1243 17.9426L6.62427 13.7793C6.45296 13.6842 6.30208 13.5636 6.17554 13.424L6.17628 12H23.8233Z" fill="white"/>
<path fill-rule="evenodd" clip-rule="evenodd" d="M14.5066 12.2799L15.5259 11.2667L16.1456 11.8813L19.1587 8.9417C19.5587 8.51262 19.9392 8.46435 20.3001 8.79689C20.6611 9.12943 20.6431 9.50339 20.2462 9.91876L16.7305 13.3739C16.5895 13.5269 16.3945 13.6033 16.1456 13.6033C15.8967 13.6033 15.6762 13.4836 15.4842 13.2441L14.5066 12.2799Z" fill="#AAAAAA"/>
<path fill-rule="evenodd" clip-rule="evenodd" d="M9.7059 11.6785C9.38506 11.3399 9.37628 11.0021 9.67954 10.6653C9.9828 10.3284 10.3314 10.3284 10.7252 10.6653L12.0944 11.9962L15.1075 9.05663C15.5075 8.62755 15.888 8.57928 16.2489 8.91182C16.6099 9.24436 16.5919 9.61832 16.195 10.0337L12.6793 13.4889C12.5383 13.6418 12.3433 13.7183 12.0944 13.7183C11.8455 13.7183 11.625 13.5985 11.433 13.359L9.7059 11.6785Z" fill="#AAAAAA"/>
<ellipse cx="23.9999" cy="5.99999" rx="3.6" ry="3.6" fill="white"/>
<path d="M24 1C21.235 1 19 3.235 19 6C19 8.765 21.235 11 24 11C26.765 11 29 8.765 29 6C29 3.235 26.765 1 24 1ZM26.5 7.795L25.795 8.5L24 6.705L22.205 8.5L21.5 7.795L23.295 6L21.5 4.205L22.205 3.5L24 5.295L25.795 3.5L26.5 4.205L24.705 6L26.5 7.795Z" fill="#CF021C"/>
</svg>
