<svg width="30" height="24" viewBox="0 0 30 24" fill="none" xmlns="http://www.w3.org/2000/svg">
<path fill-rule="evenodd" clip-rule="evenodd" d="M4.33841 9.7772L14.0443 3.70178C14.6263 3.33748 15.3737 3.33748 15.9557 3.70178L25.6616 9.7772C26.1659 10.0929 26.4706 10.6358 26.4706 11.2186V19.7141C26.4706 20.1876 26.0756 20.5714 25.5882 20.5714H4.41177C3.92446 20.5714 3.52942 20.1876 3.52942 19.7141V11.2186C3.52942 10.6358 3.83413 10.0929 4.33841 9.7772Z" fill="#00B878"/>
<path fill-rule="evenodd" clip-rule="evenodd" d="M6.61764 5.57141H23.3823C23.8697 5.57141 24.2647 5.95517 24.2647 6.42855V12.2909C24.2647 12.906 23.9254 13.4741 23.3755 13.7793L15.8755 17.9425C15.333 18.2437 14.667 18.2437 14.1245 17.9425L6.62446 13.7793C6.07462 13.4741 5.73529 12.906 5.73529 12.2909V6.42855C5.73529 5.95517 6.13033 5.57141 6.61764 5.57141Z" fill="white"/>
<path fill-rule="evenodd" clip-rule="evenodd" d="M23.3823 5.57141C23.8697 5.57141 24.2647 5.95517 24.2647 6.42855V12.2909C24.2647 12.906 23.9254 13.4741 23.3755 13.7793L15.8755 17.9425C15.333 18.2437 14.667 18.2437 14.1245 17.9425L6.62446 13.7793C6.07462 13.4741 5.73529 12.906 5.73529 12.2909V6.42855C5.73529 5.95517 6.13033 5.57141 6.61764 5.57141H23.3823ZM23.3823 5.99998H6.61764C6.39139 5.99998 6.20492 6.16543 6.17944 6.37857L6.17647 6.42855V12.2909C6.17647 12.7234 6.40015 13.1249 6.76789 13.362L6.84334 13.4072L14.3433 17.5704C14.7231 17.7812 15.1836 17.7953 15.5741 17.6126L15.6566 17.5704L23.1566 13.4072C23.5433 13.1926 23.7911 12.8047 23.8206 12.3769L23.8235 12.2909V6.42855C23.8235 6.20877 23.6532 6.02762 23.4338 6.00287L23.3823 5.99998Z" fill="#F4F4F4"/>
<path fill-rule="evenodd" clip-rule="evenodd" d="M23.8236 12L23.8235 13.4249C23.6972 13.5641 23.5465 13.6844 23.3756 13.7793L15.8756 17.9426C15.3331 18.2437 14.667 18.2437 14.1245 17.9426L6.62451 13.7793C6.4532 13.6842 6.30233 13.5636 6.17578 13.424L6.17652 12H23.8236Z" fill="white"/>
<path fill-rule="evenodd" clip-rule="evenodd" d="M14.5066 12.2799L15.5259 11.2667L16.1456 11.8813L19.1587 8.9417C19.5587 8.51262 19.9392 8.46435 20.3001 8.79689C20.6611 9.12943 20.6431 9.50339 20.2462 9.91876L16.7305 13.3739C16.5895 13.5269 16.3945 13.6033 16.1456 13.6033C15.8967 13.6033 15.6762 13.4836 15.4842 13.2441L14.5066 12.2799Z" fill="#6964CE"/>
<path fill-rule="evenodd" clip-rule="evenodd" d="M9.70596 11.6785C9.38512 11.3399 9.37634 11.0021 9.6796 10.6653C9.98286 10.3284 10.3314 10.3284 10.7253 10.6653L12.0945 11.9962L15.1076 9.05663C15.5076 8.62755 15.8881 8.57928 16.249 8.91182C16.6099 9.24436 16.592 9.61832 16.195 10.0337L12.6794 13.4889C12.5384 13.6418 12.3434 13.7183 12.0945 13.7183C11.8455 13.7183 11.6251 13.5985 11.4331 13.359L9.70596 11.6785Z" fill="#6964CE"/>
</svg>
